<svg xmlns="http://www.w3.org/2000/svg" width="760" height="300" viewBox="0 0 760 300" font-family="Arial, Helvetica, sans-serif" font-size="13">
  <rect width="760" height="300" fill="#ffffff"/>
  <defs><marker id="a" markerWidth="10" markerHeight="8" refX="9" refY="4" orient="auto"><path d="M0,0 L10,4 L0,8 z" fill="#475569"/></marker></defs>
  <text x="20" y="28" font-size="14" font-weight="bold" fill="#0f172a">Server</text>
  <text x="420" y="28" font-size="14" font-weight="bold" fill="#0f172a">Browser (root layout)</text>
  <rect x="20" y="45" width="220" height="56" rx="8" fill="#eef2ff" stroke="#6366f1"/>
  <text x="130" y="68" text-anchor="middle" fill="#0f172a">Server Action</text>
  <text x="130" y="86" text-anchor="middle" fill="#475569" font-size="12">login / logout / …</text>
  <rect x="20" y="140" width="220" height="56" rx="8" fill="#eef2ff" stroke="#6366f1"/>
  <text x="130" y="163" text-anchor="middle" fill="#0f172a">flash({ type, title })</text>
  <text x="130" y="181" text-anchor="middle" fill="#475569" font-size="12">src/lib/flash.ts</text>
  <rect x="20" y="230" width="220" height="50" rx="8" fill="#f1f5f9" stroke="#94a3b8"/>
  <text x="130" y="260" text-anchor="middle" fill="#0f172a">redirect("/")</text>
  <rect x="420" y="45" width="300" height="56" rx="8" fill="#fff7ed" stroke="#f59e0b"/>
  <text x="570" y="68" text-anchor="middle" fill="#0f172a">Client components</text>
  <text x="570" y="86" text-anchor="middle" fill="#475569" font-size="12">notify.success / error / promise …</text>
  <rect x="420" y="140" width="300" height="56" rx="8" fill="#ecfdf5" stroke="#10b981"/>
  <text x="570" y="163" text-anchor="middle" fill="#0f172a">FlashToaster</text>
  <text x="570" y="181" text-anchor="middle" fill="#475569" font-size="12">load / pathname / cookie change → read + delete</text>
  <rect x="420" y="230" width="300" height="50" rx="8" fill="#ecfdf5" stroke="#10b981"/>
  <text x="570" y="260" text-anchor="middle" fill="#0f172a">notify → sonner &lt;Toaster /&gt;</text>
  <line x1="130" y1="101" x2="130" y2="138" stroke="#475569" stroke-width="1.5" marker-end="url(#a)"/>
  <line x1="130" y1="196" x2="130" y2="228" stroke="#475569" stroke-width="1.5" marker-end="url(#a)"/>
  <line x1="240" y1="168" x2="418" y2="168" stroke="#475569" stroke-width="1.5" marker-end="url(#a)"/>
  <text x="329" y="160" text-anchor="middle" fill="#475569" font-size="12">Set-Cookie: flash</text>
  <line x1="570" y1="196" x2="570" y2="228" stroke="#475569" stroke-width="1.5" marker-end="url(#a)"/>
  <path d="M720,73 C752,73 752,255 722,255" fill="none" stroke="#475569" stroke-width="1.5" marker-end="url(#a)"/>
</svg>
